<svg width="212" height="564" fill="none" xmlns="http://www.w3.org/2000/svg"><g filter="url(#a)"><path d="M185.796 128.927c46.105-55.259 139.033-28.537 148.182-25.135 0 0 83.946-40.448 30.244 42.608-53.701 83.056 108.327 57.599 108.327 57.599l-95.677 127.44s-54.729-145.886-159.91-76.73c-40.299 26.496-58.21 64.294-64.974 100.844 33.713 16.914 84.442 30.569 158.066 38.93 362.121 41.126-150.947 75.527-150.947 75.527s-18.008-55.611-7.119-114.457c-132.101-66.277-2.924-182.603 33.808-226.626Z" fill="#4B47FF"/></g><defs><filter id="a" x=".839" y=".945" width="564.71" height="562.065" filterUnits="userSpaceOnUse" color-interpolation-filters="sRGB"><feFlood flood-opacity="0" result="BackgroundImageFix"/><feBlend in="SourceGraphic" in2="BackgroundImageFix" result="shape"/><feGaussianBlur stdDeviation="46.5" result="effect1_foregroundBlur_382_3978"/></filter></defs></svg>