<svg width="57" height="60" fill="none" xmlns="http://www.w3.org/2000/svg"><path d="M21.07 54.892c-4.043-1.138-7.599-3.231-10.704-6.156-.974.343-1.967.686-2.978 1.011-.47.145-.939.09-1.426-.09-.866-.325-1.39-.957-1.769-1.733-.523-1.029-1.191-1.967-1.715-2.996-.47-.957-1.155-1.787-1.552-2.78-.199-.487-.722-.812-.722-1.426-.47-.758-.018-1.426.253-2.094.072-.18.162-.415.325-.487.65-.289.974-.939 1.516-1.336.252-.18.523-.379.812-.596-.415-2.075-.776-4.151-.776-6.281 0-2.112.379-4.152.776-6.174-.704-.65-1.354-1.281-2.04-1.877-.704-.613-1.119-1.372-1.029-2.166.055-.433.18-.902.398-1.263.667-1.065 1.281-2.184 1.93-3.268.524-.866.976-1.768 1.553-2.617.307-.433.488-.939.795-1.39.595-.848 1.787-1.263 2.761-.974.867.252 1.679.631 2.563.794.09.018.163.144.253.234 3.123-2.906 6.679-4.982 10.758-6.19.163-.488.199-1.012.397-1.517.145-.38.109-.849.18-1.264.2-1.083.867-1.714 1.824-2.04.343-.108.686-.216 1.101-.216 2.527.036 5.054.036 7.581 0 .722 0 1.336.289 1.914.614.523.27.812.848.956 1.39.253.992.397 2.003.596 3.05 4.061 1.155 7.617 3.231 10.722 6.155.975-.343 1.968-.685 2.978-1.01.47-.145.939-.09 1.426.09.867.325 1.39.957 1.77 1.733.523 1.028 1.19 1.967 1.714 2.996.47.957 1.155 1.787 1.553 2.78.198.487.721.812.721 1.426.47.758.019 1.426-.252 2.094-.072.18-.163.415-.325.487-.65.289-.975.939-1.516 1.336-.253.18-.524.379-.813.596.416 2.075.776 4.151.776 6.281 0 2.112-.324 4.152-.776 6.173.704.65 1.354 1.282 2.04 1.878.704.613 1.12 1.371 1.029 2.166-.054.433-.163.902-.397 1.263-.65 1.047-1.264 2.13-1.895 3.195-.795 1.318-1.445 2.744-2.365 3.99-.163.685-.812.74-1.282.992-.505.27-1.01.199-1.57.036-.83-.234-1.625-.65-2.491-.758-.09-.018-.163-.144-.253-.235-3.123 2.943-6.66 5.036-10.794 6.21-.199.975-.38 1.985-.596 2.978-.216.975-.866 1.589-1.787 1.877-.343.109-.704.217-1.1.217a265.363 265.363 0 0 0-7.582 0c-.722 0-1.336-.289-1.913-.614-.524-.27-.83-.848-.939-1.39a156.992 156.992 0 0 0-.614-3.104Zm1.174-15.903c.36-.198.776-.325.794-.758.036-.65.126-1.318-.018-1.931-.253-1.047-.704-2.058-.975-3.105-.18-.668-.578-1.3-.56-2.022-.577-1.426-.938-2.924-1.425-4.368-.398-1.191-.686-2.419-1.12-3.592-.234-.65-.289-1.372-.722-1.95a.926.926 0 0 1-.054-.09c-.487-.325-.993-.216-1.426-.216-.253.234-.47.433-.668.613-.018.578-.433 1.03-.36 1.589-.633 1.408-.903 2.924-1.427 4.368-.27.74-.433 1.498-.65 2.256-.198.758-.631 1.444-.631 2.257-.686 1.534-1.03 3.177-1.535 4.783-.126.397-.198.776.055 1.155.072.109.036.271.036.253.289.307.505.523.686.74h1.083c.252-.325.505-.632.74-.938-.054-1.03.162-1.715.631-2.816h5.307c.145.577.217 1.137.416 1.66.09.217.18.433.144.65-.054.668.162 1.191.92 1.444.181.018.452.018.759.018Zm4.223 0c.488-.036 1.047.108 1.445-.289.144-.18.27-.36.45-.613V32.49c1.318 0 2.618-.054 3.9.018.776.036 1.408-.199 2.021-.578.29-.18.542-.45.794-.704.668-.65.993-1.444 1.011-2.382v-4.423c0-.216-.054-.45-.108-.668-.198-.776-.614-1.353-1.173-1.859-.65-.595-1.408-.956-2.31-.956H26.43c-.198.216-.397.433-.631.65v16.768c.234.199.45.416.667.632Zm12.997 0h3.754c.217-.216.433-.433.65-.632v-1.083c-.27-.505-.686-.812-1.227-.866V23.592c.397-.198.74-.379 1.137-.596.054-.469.09-.956.126-1.3-.289-.324-.487-.559-.65-.74h-3.682c-.307.271-.523.47-.794.723.054.433.126.92.18 1.335.434.217.777.398 1.083.56v12.852c-.18.036-.379 0-.45.09-.254.253-.687.325-.777.74v1.083l.65.65Z" fill="#fff"/><path d="M19.049 32.455c-1.065.036-2.185.054-3.304.09-.036 0-.09.072-.198.163.018-1.12.65-2.022.722-3.05.541-.904.595-1.969.957-2.98.108.109.27.217.27.308.018.776.47 1.444.614 2.184.108.505.397.992.47 1.498.071.65.505 1.137.469 1.787ZM33.58 28.953c-.127.199-.235.398-.38.578a1.194 1.194 0 0 1-.992.433c-1.264-.018-2.527 0-3.827 0v-6.498c1.318 0 2.671-.018 4.007 0 .632.018 1.174.668 1.192 1.354v4.133Z" fill="#fff"/></svg>