<svg width="36" height="50" fill="none" xmlns="http://www.w3.org/2000/svg"><path d="M29.748 28.626c-1.74 2.387-3.59 4.923-4.634 7.864H10.89c-1.05-2.976-2.935-5.55-4.707-7.967l-.03-.042c-.511-.696-1.013-1.379-1.494-2.07l-.001-.002a16.038 16.038 0 0 1-2.895-9.221C1.764 8.25 9.031 1 18 1c8.969 0 16.236 7.25 16.236 16.197 0 3.431-1.07 6.602-2.896 9.224-.481.69-.983 1.374-1.493 2.07l-.003.002-.096.133Zm-4.914 13.561C24.834 45.95 21.78 49 18 49c-3.779 0-6.834-3.051-6.834-6.813v-.562h13.668v.563ZM8.6 19.75a2.57 2.57 0 0 0 2.567-2.563c0-3.761 3.055-6.812 6.834-6.812a2.57 2.57 0 0 0 2.567-2.563A2.57 2.57 0 0 0 18 5.25c-6.611 0-11.968 5.338-11.968 11.938a2.57 2.57 0 0 0 2.567 2.562Z" stroke="#00BEE8" stroke-width="2"/></svg>