<svg width="54" height="60" fill="none" xmlns="http://www.w3.org/2000/svg"><path d="M.686.01c0 .233-.01.392 0 .55.402 4.399.804 8.797 1.196 13.206.55 6.237 1.09 12.475 1.64 18.702.624 7 1.26 13.988 1.862 20.987.043.507.222.73.699.856 6.772 1.861 13.523 3.732 20.295 5.583.455.127 1.005.148 1.46.02 6.794-1.86 13.576-3.753 20.37-5.624.518-.148.698-.38.74-.91.212-2.642.466-5.296.699-7.94.391-4.376.772-8.753 1.164-13.13.455-5.139.92-10.266 1.375-15.405.339-3.827.699-7.643 1.037-11.47.159-1.798.297-3.595.445-5.435H.686v.01Zm42.76 15.267-1.048 11.62-1.206 13.342c-.116 1.28-.286 2.559-.317 3.849-.022.687-.318.867-.89 1.025-4.084 1.1-8.157 2.231-12.231 3.352-.18.052-.35.116-.53.169-.063-.032-.127-.053-.2-.085-4.36-1.184-8.72-2.379-13.08-3.584-.18-.053-.412-.338-.433-.54-.307-3.298-.582-6.596-.878-9.958h6.655c.117 1.321.244 2.664.35 4.017.095 1.248.084 1.248 1.259 1.565 2.106.56 4.222 1.11 6.328 1.66l-.022-.053c2.307-.613 4.614-1.216 6.92-1.871.212-.064.456-.402.487-.635.138-1.015.212-2.04.297-3.055.137-1.639.275-3.278.423-4.99h-8.127l.021-.043H12.325c-.2-2.188-.39-4.356-.592-6.587h15.503l-.022-.042h8.709c.2-2.273.402-4.493.603-6.756h-9.323l.021-.042h-.169c-5.216.01-10.433.01-15.65.021-.074 0-.148-.031-.285-.074-.191-2.157-.392-4.313-.582-6.534h16.687l-.022-.042h16.592c-.116 1.48-.233 2.876-.349 4.271Z" fill="#fff"/></svg>