<svg width="872" height="820" fill="none" xmlns="http://www.w3.org/2000/svg"><g filter="url(#a)"><path d="M93.345 355.831c60.327-131.056 98.506-176.45 110.055-182.765 0 0 37.195-129.83 68.275 10.587 31.081 140.417 153.364-57.393 153.364-57.393l35.666 229.571-139.119 83.433 139.119 50.855-64.199 236.258-220.11-200.039 145.19-87.074-228.24-83.433Z" fill="#4B47FF"/></g><g filter="url(#b)"><path d="M429.832 380.593C256.67 332.738 503.52 93.049 503.52 93.049s58.806 203.742 139.862 109.17c81.057-94.571 24.382 94.573 98.182 180.897 73.801 86.324 14.93 111.386 14.93 111.386s-76.741 142.508-139.292 89.795c-62.551-52.714-135.186-86.048-162.69-132.448-24.8-41.839-8.27-56.813 17.724-59.924-12.386-3.176-26.466-6.928-42.404-11.332Z" fill="#00BEE8"/></g><defs><filter id="a" x=".345" y="25.377" width="553.36" height="794" filterUnits="userSpaceOnUse" color-interpolation-filters="sRGB"><feFlood flood-opacity="0" result="BackgroundImageFix"/><feBlend in="SourceGraphic" in2="BackgroundImageFix" result="shape"/><feGaussianBlur stdDeviation="46.5" result="effect1_foregroundBlur_389_6568"/></filter><filter id="b" x="275.223" y=".049" width="596.516" height="688.947" filterUnits="userSpaceOnUse" color-interpolation-filters="sRGB"><feFlood flood-opacity="0" result="BackgroundImageFix"/><feBlend in="SourceGraphic" in2="BackgroundImageFix" result="shape"/><feGaussianBlur stdDeviation="46.5" result="effect1_foregroundBlur_389_6568"/></filter></defs></svg>