<svg width="61" height="60" fill="none" xmlns="http://www.w3.org/2000/svg"><path d="M59.564 27.357 33.332 1.126c-1.5-1.501-3.98-1.501-5.481 0l-5.416 5.416 6.917 6.916c1.631-.522 3.458-.195 4.698 1.11 1.305 1.305 1.631 3.132 1.11 4.763l6.655 6.656c1.631-.522 3.458-.196 4.763 1.11 1.828 1.761 1.828 4.697 0 6.524-1.827 1.828-4.698 1.828-6.525 0-1.37-1.37-1.697-3.327-.979-5.024l-6.199-6.199v16.313c.457.196.849.522 1.24.849 1.827 1.761 1.827 4.698 0 6.525a4.689 4.689 0 0 1-6.525 0c-1.827-1.827-1.827-4.698 0-6.526a4.251 4.251 0 0 1 1.5-.978V22.07c-.521-.195-1.043-.587-1.5-.978-1.37-1.37-1.697-3.328-.979-5.024l-6.852-6.787L1.816 27.227c-1.5 1.5-1.5 3.98 0 5.481L27.98 58.874c1.501 1.501 3.98 1.501 5.482 0L59.498 32.84c1.567-1.567 1.567-3.98.066-5.482Z" fill="#fff"/></svg>