<svg width="899" height="977" fill="none" xmlns="http://www.w3.org/2000/svg"><g filter="url(#a)"><path d="M103.245 93.754c-69.533.79 257.662 513.092 257.662 513.092s119.014 65.171 209.816 132.635c-30.814 69.494 10.489 169.856 82.142 137.459 50.277-22.732-6.019-80.901-82.142-137.459 16.598-37.433 54.12-65.91 119.095-59.858 185.599 17.289 91.489-101.972 91.489-101.972s-74.453-66.808-65.32-134.466l.081-.602c9.058-67.087 9.784-72.462-254.971-159.828-265.545-87.628-288.32-189.792-357.852-189.001Z" fill="#00BEE8"/></g><defs><filter id="a" x=".548" y=".748" width="897.618" height="975.459" filterUnits="userSpaceOnUse" color-interpolation-filters="sRGB"><feFlood flood-opacity="0" result="BackgroundImageFix"/><feBlend in="SourceGraphic" in2="BackgroundImageFix" result="shape"/><feGaussianBlur stdDeviation="46.5" result="effect1_foregroundBlur_389_6757"/></filter></defs></svg>