<svg width="374" height="1021" fill="none" xmlns="http://www.w3.org/2000/svg"><g filter="url(#a)"><path d="M706.819 99.854c-20.258-66.521-420.25 391.208-420.25 391.208s-29.181 132.514-68.475 238.591c-75.347-10.089-160.1 57.7-108.909 117.393 35.919 41.885 75.967-28.464 108.909-117.393 40.586 5.435 78.442 33.466 90.853 97.531 35.452 182.996 123.537 59.222 123.537 59.222s43.248-90.2 110.753-100.406l.6-.091c66.936-10.118 72.299-10.929 81.916-289.561 9.645-279.463 101.324-329.973 81.066-396.494Z" fill="#00BEE8"/></g><defs><filter id="a" x=".572" y=".247" width="802.16" height="1020.08" filterUnits="userSpaceOnUse" color-interpolation-filters="sRGB"><feFlood flood-opacity="0" result="BackgroundImageFix"/><feBlend in="SourceGraphic" in2="BackgroundImageFix" result="shape"/><feGaussianBlur stdDeviation="46.5" result="effect1_foregroundBlur_382_3718"/></filter></defs></svg>