<svg width="61" height="60" fill="none" xmlns="http://www.w3.org/2000/svg"><path d="M.357 0h60v60h-60V0Zm53.68 31.762c-1.215-2.187-2.876-3.686-5.266-4.213a11.429 11.429 0 0 0-5.105-.04c-5.51 1.134-7.86 7.778-4.294 12.194 1.255 1.54 2.916 2.471 4.659 3.281 1.54.73 3.12 1.418 4.659 2.188 1.053.527 1.499 1.5 1.377 2.674-.121 1.175-.932 1.823-1.945 2.188-2.268.81-4.902.08-6.441-1.823-.324-.405-.648-.851-.972-1.297-1.54.892-3.039 1.742-4.538 2.634.932 1.823 2.228 3.281 4.01 4.253 3.04 1.661 6.24 1.905 9.522 1.094 2.147-.526 3.97-1.62 5.104-3.605 2.107-3.768.891-8.468-2.836-10.777-1.66-1.013-3.524-1.701-5.266-2.593-.851-.445-1.743-.85-2.472-1.418-1.296-1.053-1.053-3.16.405-3.97 1.418-.81 3.403-.324 4.497 1.094.243.284.405.608.648.932a193.905 193.905 0 0 1 4.254-2.796Zm-37.88 18.393c.81 1.742 1.986 3.12 3.647 4.011 2.147 1.175 4.497 1.378 6.887 1.013 2.147-.324 3.93-1.297 5.105-3.241.972-1.62 1.255-3.403 1.255-5.307V27.59h-5.63v18.878c0 .568-.041 1.175-.122 1.743-.162.931-.648 1.62-1.58 1.904-1.742.526-3.16 0-4.173-1.5-.243-.404-.486-.81-.77-1.215-1.58.932-3.079 1.824-4.618 2.755Z" fill="#fff"/></svg>