<svg width="61" height="60" fill="none" xmlns="http://www.w3.org/2000/svg"><g clip-path="url(#a)" fill="#fff"><path d="M8.057 9.8v40.5c-4.9-5.4-7.9-12.5-7.9-20.3 0-7.8 3-14.9 7.9-20.2ZM11.257 14.2l17.3 34.7h-17.3V14.2ZM30.157 45l-17-33.9h34l-17 33.9ZM30.157 0c7.8 0 14.9 3 20.2 7.9h-40.4c5.3-4.9 12.4-7.9 20.2-7.9ZM49.057 48.9h-17.3l17.3-34.7v34.7ZM50.358 52.1c-5.3 4.9-12.4 7.9-20.2 7.9-7.8 0-14.9-3-20.2-7.9h40.4ZM52.257 50.2V9.8c4.9 5.3 7.9 12.4 7.9 20.2 0 7.8-3 14.9-7.9 20.2Z"/><path d="m11.257 14.2 17.3 34.7h-17.3V14.2ZM30.157 45l-17-33.9h34l-17 33.9ZM31.757 48.9l17.3-34.7v34.7h-17.3Z"/><path d="M13.158 11.1h34l-17 33.9-17-33.9Z"/></g><defs><clipPath id="a"><path fill="#fff" transform="translate(.157)" d="M0 0h60v60H0z"/></clipPath></defs></svg>