<svg width="743" height="935" fill="none" xmlns="http://www.w3.org/2000/svg"><g filter="url(#a)"><path d="M353.108 685.566a1629.21 1629.21 0 0 1-48.137 16.511c-105.427 16.886-11.976 1.494 27.5 29.86 19.466 13.988 31.404-17.802 20.637-46.371 169.785-61.168 399.987-174.633 245.087-245.912-212.761-97.904-221.001-120.47-253.216-191.917-32.215-71.448-143.958-226.613-220.289-115.305-76.33 111.309-97.838 162.205-94.807 230.081 3.031 67.875 133.365 96.486 9.78 191.631C-83.922 649.289 77.005 934.048 210.5 811c133.495-123.047-128.079-89.606 20.943-150.101 75.538-30.665 110.598-4.701 121.665 24.667Z" fill="#4B47FF"/></g><defs><filter id="a" x="-97.557" y=".443" width="839.942" height="933.896" filterUnits="userSpaceOnUse" color-interpolation-filters="sRGB"><feFlood flood-opacity="0" result="BackgroundImageFix"/><feBlend in="SourceGraphic" in2="BackgroundImageFix" result="shape"/><feGaussianBlur stdDeviation="46.5" result="effect1_foregroundBlur_382_3652"/></filter></defs></svg>