<svg width="385" height="516" fill="none" xmlns="http://www.w3.org/2000/svg"><g filter="url(#a)"><path d="M249.991 357.74a744.048 744.048 0 0 1-22.022 7.554c-48.232 7.725-5.479.683 12.581 13.661 8.905 6.399 14.367-8.145 9.441-21.215 77.676-27.983 182.991-79.893 112.125-112.502-97.336-44.79-101.105-55.114-115.844-87.801-14.738-32.686-65.859-103.673-100.78-52.75-34.92 50.922-44.76 74.207-43.373 105.259 1.386 31.053 61.013 44.142 4.474 87.67-56.54 43.528 17.084 173.803 78.156 117.509 61.073-56.293-58.595-40.994 9.582-68.67 34.557-14.029 50.597-2.15 55.66 11.285Z" fill="#4B47FF"/></g><defs><filter id="a" x=".363" y=".85" width="471.173" height="514.155" filterUnits="userSpaceOnUse" color-interpolation-filters="sRGB"><feFlood flood-opacity="0" result="BackgroundImageFix"/><feBlend in="SourceGraphic" in2="BackgroundImageFix" result="shape"/><feGaussianBlur stdDeviation="43" result="effect1_foregroundBlur_382_3901"/></filter></defs></svg>