<svg width="298" height="451" fill="none" xmlns="http://www.w3.org/2000/svg"><g filter="url(#a)"><path d="M162.789 334.791c.31-25.647-6.374-60.261-22.816-105.959 16.855-37.91 213.072 143.579 22.816 105.959-1.465 121.024-158.683 42.391-181.403-13.262-34.418-84.308-45.485-88.683-80.055-104.796-34.569-16.114-106.437-66.527-42.861-88.115a347.047 347.047 0 0 1 8-2.62c-8.463-13.347-10.903-30.12 13.963-47.023C8.618-8.152 170.967 143.18 124.272 199.262c-42.814 51.419 16.917 131.258 38.517 135.529Z" fill="#4B47FF"/></g><defs><filter id="a" x="-218.883" y=".53" width="516.138" height="449.967" filterUnits="userSpaceOnUse" color-interpolation-filters="sRGB"><feFlood flood-opacity="0" result="BackgroundImageFix"/><feBlend in="SourceGraphic" in2="BackgroundImageFix" result="shape"/><feGaussianBlur stdDeviation="26" result="effect1_foregroundBlur_382_3832"/></filter></defs></svg>