<svg width="60" height="60" fill="none" xmlns="http://www.w3.org/2000/svg"><path d="M24.883 2c3.712.1 6.722 3.2 6.722 6.9v3.8h10.536c1.404 0 2.809.6 3.812 1.6 1.003 1 1.605 2.3 1.505 3.7v10.5h3.813c3.813 0 6.923 3 6.923 6.7 0 3.8-3.01 6.9-6.823 6.9H47.458v10.5c0 3-2.408 5.4-5.317 5.4H32.107v-4.1c0-.8-.2-1.7-.502-2.4-.3-.8-.802-1.4-1.404-2-1.405-1.4-3.412-2.1-5.418-2.1h-.1c-1.807 0-3.613.7-5.118 1.9-1.405 1.3-2.207 2.9-2.207 4.8v4H7.525c-1.405 0-2.81-.6-3.913-1.6-1.003-1-1.605-2.4-1.605-3.8v-9.8H6.12c1.806 0 3.512-.7 4.817-2.1.702-.7 1.304-1.6 1.705-2.5.402-.9.602-1.9.602-2.9-.1-4.1-3.411-7.4-7.224-7.4H2.007V18c0-1.4.602-2.8 1.605-3.8 1.003-1 2.408-1.5 3.913-1.5H18.06V8.8c0-.9.2-1.8.502-2.6.401-.8.903-1.6 1.505-2.2.602-.6 1.405-1.1 2.207-1.5.803-.3 1.706-.5 2.609-.5Zm0-2c-1.104 0-2.308.2-3.311.6-1.104.4-2.107 1.1-2.91 1.9-.802.8-1.505 1.8-1.906 2.9-.401 1.1-.703 2.2-.703 3.4v1.9H7.525c-1.906 0-3.813.7-5.217 2.1C.803 14.2 0 16.1 0 18v12h6.02c2.71 0 5.117 2.4 5.117 5.2 0 .8-.1 1.5-.401 2.2-.301.7-.703 1.3-1.204 1.8-.903.9-2.107 1.5-3.412 1.5H0v11.8c0 2 .803 3.9 2.207 5.3A7.53 7.53 0 0 0 7.525 60h11.84v-6c0-1.6.802-2.7 1.505-3.3 1.103-.9 2.408-1.4 3.812-1.4h.1c1.506 0 3.01.6 4.014 1.6.401.4.702.9.903 1.4.2.5.301 1.1.301 1.6V60h11.94c4.013 0 7.324-3.3 7.324-7.4v-8.5h1.907c4.816 0 8.829-4 8.829-8.9 0-4.8-4.013-8.7-8.93-8.7h-1.806V18c0-4-3.411-7.3-7.324-7.3H33.41V8.9C33.612 4.1 29.7.1 24.883 0Z" fill="#00BEE8"/></svg>