<svg width="61" height="60" fill="none" xmlns="http://www.w3.org/2000/svg"><path d="M60.67 4.775C60.233 2.483 58.46.628 56.195.136c-.11-.027-.218-.027-.355-.054-.027 0-.054-.055-.082-.082H5.718c-.028.027-.055.082-.11.082C3.344.464 1.434 2.265.915 4.557a2.659 2.659 0 0 1-.136.3v50.177c.027.055.082.082.082.136.545 2.51 2.073 4.066 4.556 4.694a.49.49 0 0 1 .191.136H55.84c.055-.027.082-.082.137-.11 2.483-.572 4.01-2.073 4.638-4.556.027-.082 0-.19.027-.273 0-.027.055-.054.082-.081V4.939c0-.055-.054-.082-.054-.164ZM35.567 33.26h-7.449c0 .027-.027.027-.027.054V54.68h-5.975V33.288h-7.504v-4.775H35.54v4.748h.027Zm20.137 14.27c-.055.927-.191 1.828-.573 2.7-.11.274-.191.52-.328.792-.49 1.037-1.31 1.774-2.264 2.374-1.092.682-2.292 1.064-3.547 1.31-1.392.273-2.783.354-4.202.3-.682-.027-1.364-.027-2.047-.11-1.61-.19-3.192-.545-4.665-1.254-.082-.028-.191-.164-.191-.246V47.967c.436.3.873.6 1.31.846 1.063.628 2.237 1.064 3.437 1.337 1.037.246 2.074.273 3.11.218a5.577 5.577 0 0 0 2.293-.573c.627-.327 1.146-.764 1.282-1.5.136-.655.082-1.31-.3-1.883-.546-.819-1.31-1.337-2.156-1.773-.955-.464-1.91-.874-2.892-1.31-1.446-.655-2.865-1.364-4.038-2.456-.955-.9-1.664-1.964-1.992-3.247a8.171 8.171 0 0 1-.218-2.292c.027-1.882.71-3.492 2.046-4.83 1.092-1.09 2.429-1.745 3.902-2.128 1.01-.245 2.02-.436 3.056-.463.737 0 1.473-.082 2.183-.055 1.119.027 2.21.082 3.301.355.71.19 1.446.382 2.156.546.136.027.19.109.19.272v5.103c0 .054 0 .109-.026.19-.219-.136-.41-.245-.6-.354-.874-.491-1.802-.819-2.757-1.064-1.064-.246-2.128-.41-3.22-.382-.736.027-1.5.136-2.182.382-.846.3-1.528.791-1.828 1.691-.246.71-.055 1.31.382 1.883.546.71 1.282 1.2 2.074 1.583 1.064.518 2.155.955 3.192 1.446 1.2.573 2.401 1.146 3.41 1.992.874.736 1.665 1.555 2.101 2.646.246.655.464 1.337.464 2.074.11.437.164.873.137 1.31Z" fill="#fff"/></svg>