<svg width="61" height="60" fill="none" xmlns="http://www.w3.org/2000/svg"><path d="M30.668 1.8c3.807 0 7.497.747 10.98 2.214a28.304 28.304 0 0 1 8.966 6.049 28.34 28.34 0 0 1 3.447 4.176 28.656 28.656 0 0 1 2.601 4.789 28.062 28.062 0 0 1 2.214 10.981c0 3.816-.747 7.498-2.214 10.981a28.307 28.307 0 0 1-6.048 8.965 28.34 28.34 0 0 1-4.177 3.447 28.656 28.656 0 0 1-4.788 2.602 28.061 28.061 0 0 1-10.981 2.214c-3.808 0-7.498-.747-10.982-2.214a28.307 28.307 0 0 1-8.964-6.049 28.339 28.339 0 0 1-3.448-4.176 28.654 28.654 0 0 1-2.601-4.789A28.324 28.324 0 0 1 2.468 30c0-3.807.747-7.498 2.214-10.981a28.304 28.304 0 0 1 6.049-8.965 28.339 28.339 0 0 1 4.176-3.447 28.654 28.654 0 0 1 4.788-2.602A28.203 28.203 0 0 1 30.669 1.8Zm0-1.8c-16.571 0-30 13.43-30 30s13.429 30 30 30c16.57 0 30-13.43 30-30 .009-16.57-13.43-30-30-30Z" fill="#fff"/><path d="M5.672 30c0 9.892 5.752 18.452 14.096 22.503L7.84 19.829A24.77 24.77 0 0 0 5.672 30Zm41.881-1.26c0-3.087-1.107-5.23-2.06-6.894-1.27-2.062-2.458-3.808-2.458-5.86 0-2.295 1.746-4.438 4.194-4.438.108 0 .216.01.324.018a24.903 24.903 0 0 0-16.885-6.561c-8.731 0-16.418 4.482-20.891 11.269.585.018 1.143.027 1.61.027 2.611 0 6.662-.315 6.662-.315 1.35-.081 1.503 1.9.162 2.061 0 0-1.36.162-2.863.234l9.11 27.084 5.472-16.409-3.898-10.675c-1.35-.08-2.619-.234-2.619-.234-1.35-.08-1.188-2.142.162-2.061 0 0 4.131.315 6.589.315 2.61 0 6.66-.315 6.66-.315 1.35-.081 1.504 1.9.162 2.061 0 0-1.359.162-2.862.234l9.028 26.877 2.583-8.173c1.143-3.573 1.818-6.102 1.818-8.245ZM31.11 32.188l-7.507 21.8a25.061 25.061 0 0 0 15.365-.396 4.116 4.116 0 0 1-.18-.342l-7.678-21.062ZM52.612 18.01c.108.792.171 1.647.171 2.574 0 2.539-.477 5.392-1.9 8.956l-7.641 22.07c7.435-4.329 12.43-12.385 12.43-21.61 0-4.348-1.107-8.434-3.06-11.99Z" fill="#fff"/></svg>